<?xml version="1.0" standalone="no"?>
<!DOCTYPE svg PUBLIC "-//W3C//DTD SVG 20010904//EN"
 "http://www.w3.org/TR/2001/REC-SVG-20010904/DTD/svg10.dtd">
<svg version="1.0" xmlns="http://www.w3.org/2000/svg"
 width="1567.000000pt" height="1567.000000pt" viewBox="0 0 1567.000000 1567.000000"
 preserveAspectRatio="xMidYMid meet">
<metadata>
Created by potrace 1.11, written by Peter Selinger 2001-2013
</metadata>
<g transform="translate(0.000000,1567.000000) scale(0.100000,-0.100000)"
fill="#000000" stroke="none">
<path d="M7843 15582 c-97 -162 -181 -382 -198 -521 -3 -23 -7 -46 -9 -50 -8
-13 -20 -176 -20 -266 0 -116 10 -215 29 -305 3 -14 7 -34 10 -45 38 -179 135
-390 249 -538 l29 -38 30 33 c48 53 135 192 176 281 38 81 84 221 96 286 3 19
7 37 9 40 2 3 7 35 11 71 4 36 9 74 11 85 6 28 6 213 0 250 -17 110 -33 178
-58 255 -12 36 -23 67 -23 70 -22 86 -205 400 -266 457 l-24 22 -52 -87z"/>
<path d="M9497 15080 c-166 -96 -249 -160 -377 -290 -117 -120 -212 -254 -293
-415 -41 -83 -100 -235 -111 -288 -3 -12 -13 -56 -22 -97 -13 -56 -17 -122
-18 -255 0 -201 3 -231 28 -227 31 6 162 65 228 103 161 94 286 213 456 434
94 122 194 404 212 595 15 166 -1 469 -25 476 -6 2 -41 -15 -78 -36z"/>
<path d="M6259 15037 c-7 -23 -13 -49 -14 -57 -1 -8 -4 -24 -8 -35 -3 -11 -8
-40 -11 -65 -3 -25 -8 -63 -12 -85 -9 -55 -9 -266 0 -340 18 -151 59 -318 106
-440 37 -97 142 -286 202 -366 129 -171 198 -236 304 -284 85 -39 87 -38 113
63 28 111 34 145 47 242 7 59 7 275 -1 325 -2 17 -6 49 -9 72 -6 50 -42 200
-55 228 -5 11 -19 47 -32 80 -35 96 -76 161 -184 300 -154 196 -265 304 -384
374 l-50 30 -12 -42z"/>
<path d="M4969 14256 c0 -6 -3 -31 -7 -56 -9 -60 -8 -379 2 -460 20 -168 78
-361 157 -530 78 -164 167 -289 303 -426 122 -122 180 -161 251 -171 37 -5 39
-1 51 72 3 22 8 43 9 46 17 27 26 431 13 570 -4 36 -19 103 -34 150 -27 81
-106 245 -145 301 -11 14 -19 29 -19 33 0 3 -24 38 -53 78 -49 65 -345 369
-378 387 -24 13 -149 18 -150 6z"/>
<path d="M10975 14209 c-38 -10 -77 -21 -85 -23 -43 -12 -157 -59 -230 -95
-266 -133 -509 -359 -662 -616 -48 -80 -90 -165 -82 -165 4 0 1 -6 -5 -14 -18
-22 -70 -180 -85 -258 -13 -70 -17 -97 -20 -136 l-4 -42 62 6 c156 16 359 90
512 185 285 179 465 396 573 694 18 50 34 95 35 100 1 6 5 19 9 30 6 20 8 28
27 120 15 72 34 236 28 234 -2 0 -34 -9 -73 -20z"/>
<path d="M8505 13344 c-52 -52 -69 -161 -61 -379 l5 -160 -53 107 c-54 109
-72 135 -132 201 -43 46 -90 52 -100 12 -14 -55 16 -160 91 -320 57 -120 75
-169 75 -201 0 -40 -35 -29 -74 21 -44 58 -72 80 -119 93 -52 14 -101 -1 -132
-42 -37 -48 -32 -66 29 -114 65 -50 124 -119 196 -227 86 -128 109 -154 163
-182 55 -27 160 -42 278 -38 94 3 135 20 170 68 34 47 80 184 104 312 10 50
44 169 76 265 67 201 82 262 74 301 -8 35 -24 41 -64 22 -27 -13 -43 -38 -99
-154 -36 -76 -69 -135 -72 -131 -3 4 -3 45 0 92 3 47 2 130 -2 185 -16 219
-41 267 -102 195 -33 -40 -44 -80 -62 -230 -13 -118 -33 -225 -39 -218 -2 2
-6 21 -9 43 -4 22 -8 54 -11 70 -3 17 -7 77 -10 135 -10 186 -28 255 -74 280
-25 13 -27 13 -46 -6z"/>
<path d="M7505 13296 c-63 -29 -102 -86 -100 -148 1 -35 -1 -37 -25 -31 -14 3
-32 9 -40 13 -22 11 -70 1 -112 -23 -38 -21 -91 -105 -83 -130 3 -7 7 -25 9
-40 7 -43 54 -97 100 -117 43 -19 102 -27 246 -35 47 -3 97 -7 113 -11 15 -3
27 -2 28 3 2 25 12 62 40 148 40 127 41 131 44 193 7 139 -105 230 -220 178z"/>
<path d="M3713 13217 c3 -34 8 -71 10 -82 2 -11 7 -36 11 -55 3 -19 8 -44 10
-55 8 -40 57 -177 86 -243 35 -76 120 -225 132 -230 4 -2 8 -8 8 -13 0 -11 92
-133 163 -214 85 -98 227 -233 285 -272 129 -85 344 -171 447 -177 18 -1 20 5
20 54 -2 213 -63 423 -202 695 -85 166 -250 335 -440 449 -104 62 -281 139
-373 161 -3 1 -12 5 -20 8 -8 4 -26 9 -40 11 -14 3 -42 10 -63 15 l-39 9 5
-61z"/>
<path d="M6393 13094 c-19 -8 -50 -65 -56 -104 -7 -38 -14 -112 -22 -230 -10
-144 -17 -193 -27 -177 -11 21 -25 96 -33 187 -13 147 -43 242 -87 269 -57 36
-84 -86 -81 -374 l1 -140 -68 140 c-69 140 -96 174 -137 175 -52 0 -44 -81 28
-287 28 -81 58 -177 66 -213 56 -241 76 -312 105 -370 48 -94 71 -104 228
-107 220 -4 274 22 388 192 91 135 146 201 212 251 61 46 68 65 40 104 -41 58
-111 75 -173 44 -35 -19 -38 -21 -90 -87 -39 -48 -61 -58 -70 -33 -9 23 11 81
75 219 85 185 114 314 75 339 -29 20 -75 -13 -147 -104 -10 -14 -41 -73 -69
-131 -27 -59 -52 -107 -54 -107 -2 0 -3 17 -1 38 29 336 -13 542 -103 506z"/>
<path d="M12057 13034 c-1 -1 -58 -4 -127 -8 -200 -9 -283 -27 -440 -94 -166
-70 -335 -157 -428 -222 -165 -113 -385 -369 -480 -556 -18 -35 -19 -47 -10
-76 14 -48 61 -63 193 -63 172 0 254 15 460 83 235 77 410 185 565 349 175
184 276 341 324 503 23 79 22 85 -20 85 -20 0 -36 -1 -37 -1z"/>
<path d="M9328 12323 c-112 -47 -130 -147 -63 -351 20 -61 39 -127 42 -147 4
-28 9 -34 23 -30 10 3 55 8 101 10 212 13 250 20 302 59 154 113 29 345 -152
281 l-36 -12 -1 48 c-3 106 -119 183 -216 142z"/>
<path d="M2741 12011 c-10 -6 -11 -17 -6 -37 5 -16 9 -35 11 -42 5 -29 57
-148 86 -201 90 -163 262 -358 418 -474 177 -131 407 -215 670 -245 91 -10
340 -6 352 6 9 9 -51 145 -103 232 -101 169 -282 362 -451 482 -184 130 -399
223 -608 263 -96 19 -348 30 -369 16z"/>
<path d="M12528 12005 c-2 -2 -35 -5 -73 -9 -406 -37 -808 -246 -1060 -550
-72 -87 -156 -220 -167 -265 -3 -13 54 -35 122 -46 19 -3 49 -8 65 -11 99 -19
354 -5 475 25 25 7 55 14 67 16 54 12 233 80 283 107 143 80 319 229 427 363
78 97 225 342 208 346 -3 1 -8 2 -12 3 -48 12 -326 29 -335 21z"/>
<path d="M7346 11775 c-119 -41 -145 -176 -55 -279 22 -25 77 -73 122 -107 45
-34 96 -75 113 -91 21 -20 34 -26 39 -18 4 6 50 45 103 87 121 95 159 134 183
187 22 50 19 122 -6 160 -57 86 -193 93 -262 12 -13 -14 -23 -31 -23 -37 0 -8
-5 -8 -15 1 -8 7 -15 17 -15 22 0 23 -65 64 -112 71 -19 2 -52 -1 -72 -8z"/>
<path d="M4913 11753 c-11 -17 -17 -44 -17 -77 1 -53 12 -87 108 -338 31 -81
59 -162 62 -180 l6 -33 -26 30 c-14 17 -56 80 -93 140 -127 211 -186 278 -256
291 -22 3 -28 0 -33 -21 -15 -62 59 -278 165 -479 28 -53 48 -96 44 -96 -8 0
-57 40 -182 148 -92 79 -101 84 -146 90 -36 4 -45 1 -54 -16 -13 -25 -3 -56
38 -115 36 -52 38 -55 190 -216 68 -72 155 -175 194 -228 140 -198 230 -293
311 -335 60 -31 116 -20 260 51 214 104 259 169 281 401 11 109 52 274 89 360
20 44 36 89 36 98 0 10 -19 30 -42 45 -105 68 -221 2 -248 -141 -13 -69 -30
-106 -52 -110 -25 -5 -38 54 -43 208 -11 308 -20 372 -58 447 -30 58 -76 52
-103 -13 -30 -72 -44 -166 -43 -305 0 -78 -2 -143 -4 -145 -2 -2 -28 56 -57
129 -95 235 -168 360 -241 409 -52 35 -64 35 -86 1z"/>
<path d="M6345 11645 c-79 -37 -117 -117 -94 -197 l8 -29 -42 6 c-117 18 -217
-105 -172 -211 44 -105 134 -134 312 -99 43 9 98 18 123 21 90 10 85 4 87 96
1 46 3 128 4 183 2 85 -1 107 -19 145 -40 83 -131 121 -207 85z"/>
<path d="M10366 11581 c-62 -41 -130 -135 -259 -355 -65 -112 -117 -172 -140
-163 -22 8 -21 39 3 107 50 143 -8 260 -130 260 -68 0 -79 -13 -86 -95 -9
-107 -30 -194 -75 -312 -100 -261 -105 -292 -70 -396 35 -100 162 -275 229
-314 38 -23 51 -25 105 -20 83 8 195 46 352 119 72 33 225 91 340 128 227 72
302 105 333 145 26 33 20 50 -26 68 -43 17 -46 17 -252 -22 -85 -16 -156 -28
-158 -26 -2 2 25 22 60 44 128 81 162 106 298 223 36 31 79 75 95 98 l29 42
-24 20 c-18 15 -34 18 -65 14 -80 -10 -138 -36 -300 -132 -49 -29 -115 -62
-145 -74 l-55 -21 65 63 c69 66 71 69 190 163 145 115 200 184 200 249 0 76
-137 48 -309 -65 -36 -23 -112 -80 -170 -127 -146 -118 -137 -112 -121 -82 7
14 37 67 67 118 84 141 134 310 103 347 -17 20 -49 19 -84 -4z"/>
<path d="M8671 11504 c-38 -48 -46 -92 -46 -259 0 -146 3 -194 21 -350 4 -27
4 -48 1 -45 -3 3 -33 59 -67 125 -83 160 -185 285 -233 285 -40 0 -52 -16 -51
-68 2 -71 36 -166 135 -367 93 -191 110 -248 73 -253 -21 -3 -31 6 -94 80 -58
69 -129 96 -195 75 -41 -13 -69 -41 -91 -89 l-18 -40 31 -27 c17 -14 60 -51
95 -81 68 -58 157 -163 228 -269 101 -151 174 -192 348 -195 258 -5 323 28
376 189 21 67 54 226 61 300 8 85 22 158 46 245 86 316 102 402 85 457 -9 30
-27 34 -66 15 -36 -17 -49 -42 -135 -255 -26 -64 -50 -116 -52 -114 -2 3 -5
71 -8 153 -4 183 -27 352 -56 426 -32 80 -103 15 -128 -119 -5 -26 -12 -104
-16 -173 -6 -130 -23 -265 -32 -256 -11 11 -32 149 -58 376 -17 141 -39 206
-83 240 -33 26 -46 25 -71 -6z"/>
<path d="M6604 10865 c-8 -19 -14 -43 -14 -53 0 -26 28 -119 52 -172 65 -142
128 -300 128 -318 0 -18 -56 52 -132 168 -84 128 -135 187 -178 210 -24 13
-70 13 -71 0 -1 -5 -2 -16 -3 -22 -7 -49 104 -312 186 -441 17 -26 29 -50 27
-52 -2 -2 -62 41 -133 96 -133 103 -158 116 -201 105 -63 -16 -15 -96 164
-271 73 -72 169 -177 214 -235 107 -138 224 -255 278 -279 60 -27 104 -19 214
36 211 105 254 170 270 398 8 114 28 209 66 308 17 42 29 85 27 94 -2 9 -25
28 -51 41 -43 23 -51 24 -89 13 -69 -21 -110 -83 -122 -186 -6 -46 -16 -65
-37 -65 -24 0 -37 47 -44 160 -13 208 -17 249 -30 312 -24 118 -62 165 -105
130 -38 -31 -58 -154 -53 -313 3 -74 3 -132 0 -129 -3 3 -31 64 -63 135 -94
212 -181 334 -253 355 -31 9 -33 7 -47 -25z"/>
<path d="M12778 10705 c-2 -1 -47 -5 -100 -8 -163 -10 -297 -40 -418 -93 -177
-78 -329 -182 -465 -319 -94 -94 -193 -211 -184 -219 20 -17 221 -69 314 -81
22 -3 56 -8 75 -10 78 -11 316 -5 401 10 19 4 47 8 63 11 134 18 366 104 511
189 149 87 304 221 386 333 l31 42 -64 29 c-141 63 -284 99 -428 107 -47 3
-93 6 -102 8 -9 2 -18 3 -20 1z"/>
<path d="M4524 10481 c-46 -21 -78 -57 -94 -107 -11 -34 -12 -34 -28 -16 -44
50 -125 58 -193 21 -71 -40 -98 -122 -65 -200 28 -66 88 -106 244 -161 48 -16
103 -38 123 -48 l36 -19 18 32 c24 42 88 141 95 147 32 29 79 132 86 189 14
121 -110 212 -222 162z"/>
<path d="M2569 10476 c-2 -2 -31 -7 -64 -10 -33 -3 -75 -8 -93 -10 -18 -3 -52
-8 -75 -11 -23 -4 -44 -9 -46 -11 -4 -4 18 -53 29 -64 3 -3 22 -30 42 -61 110
-162 359 -360 614 -487 86 -43 264 -106 328 -116 21 -4 41 -8 45 -10 3 -2 30
-7 60 -11 30 -4 63 -9 75 -12 34 -9 405 -11 479 -3 74 8 83 12 71 32 -5 7 -9
20 -11 28 -4 28 -38 96 -76 154 -42 63 -124 148 -222 233 -33 28 -73 64 -90
78 -142 126 -415 236 -672 271 -47 6 -389 15 -394 10z"/>
<path d="M10834 10211 c-52 -39 -128 -140 -209 -281 -99 -171 -167 -255 -189
-233 -12 12 -6 64 15 126 37 109 6 201 -78 233 -44 17 -107 14 -126 -5 -5 -5
-13 -50 -18 -100 -11 -119 -30 -189 -95 -351 -53 -132 -73 -207 -68 -246 14
-94 29 -131 106 -244 70 -103 96 -133 140 -160 80 -49 233 -11 538 133 41 19
149 58 240 87 229 71 290 95 333 131 43 35 47 60 12 83 -34 23 -76 20 -257
-15 -88 -17 -162 -29 -164 -27 -2 2 45 36 104 75 195 129 380 300 366 338 -7
18 -52 33 -84 29 -59 -9 -133 -40 -245 -104 -139 -78 -190 -104 -225 -115 -22
-6 -21 -3 15 35 22 23 72 67 110 98 39 31 75 61 81 67 6 5 43 36 82 68 111 92
158 169 132 217 -16 31 -90 27 -165 -8 -58 -28 -195 -108 -205 -121 -4 -5
-188 -153 -227 -184 -12 -9 57 123 76 147 49 60 117 258 107 312 -10 52 -44
57 -102 15z"/>
<path d="M9470 10203 c-111 -46 -137 -155 -89 -373 6 -25 13 -67 15 -95 3 -27
6 -50 7 -51 2 -1 152 -10 292 -18 111 -6 212 70 220 165 4 44 -30 105 -77 139
-39 28 -49 31 -103 28 -49 -2 -59 0 -57 12 15 62 -13 131 -68 170 -30 21 -112
35 -140 23z"/>
<path d="M7960 10031 c-54 -29 -83 -76 -86 -139 -3 -65 14 -116 71 -223 24
-44 51 -100 61 -125 9 -24 19 -44 21 -44 2 0 19 7 38 14 19 8 35 13 35 11 0
-3 10 -1 23 4 13 5 39 12 58 15 19 3 49 10 67 15 17 5 32 8 32 5 0 -9 117 49
139 69 13 12 32 39 41 60 62 137 -93 273 -230 202 -16 -8 -31 -15 -33 -15 -2
0 -7 19 -10 43 -4 33 -14 50 -46 78 -58 52 -120 62 -181 30z"/>
<path d="M5135 10016 c-45 -68 -43 -99 18 -381 19 -88 38 -182 41 -210 l6 -50
-20 25 c-11 14 -40 75 -65 135 -102 246 -148 322 -210 345 -70 26 -73 -56 -10
-315 13 -55 33 -127 45 -160 32 -93 48 -145 45 -145 -2 0 -57 62 -124 138
-119 137 -149 162 -196 162 -74 0 -43 -101 90 -295 148 -217 162 -239 228
-368 127 -247 217 -357 303 -371 74 -13 296 52 382 111 53 36 98 92 120 148 6
17 27 85 47 153 39 138 82 238 143 332 23 35 42 71 42 80 0 18 -42 61 -77 79
-33 17 -94 13 -129 -8 -45 -27 -81 -78 -104 -147 -21 -62 -42 -86 -66 -77 -19
7 -19 140 1 258 23 134 30 312 16 373 -16 64 -41 90 -76 74 -41 -19 -107 -174
-119 -282 -15 -124 -29 -201 -36 -189 -5 8 -22 75 -39 149 -50 223 -111 372
-175 428 -44 38 -60 40 -81 8z"/>
<path d="M6550 9602 c-28 -14 -89 -84 -88 -102 2 -26 -7 -27 -48 -1 -110 70
-249 -3 -246 -129 1 -55 12 -82 51 -123 24 -27 115 -75 171 -92 14 -4 63 -23
110 -42 48 -20 86 -30 88 -25 2 6 41 68 88 138 94 140 117 201 102 267 -24
107 -129 157 -228 109z"/>
<path d="M9184 9550 c-29 -12 -61 -82 -70 -155 -8 -61 -8 -246 0 -345 l5 -55
-53 108 c-59 120 -143 233 -181 243 -38 10 -55 -2 -56 -38 -3 -78 12 -126 96
-313 35 -78 66 -158 70 -178 7 -35 6 -37 -17 -37 -19 0 -35 14 -64 53 -50 67
-104 94 -176 88 -24 -2 -78 -50 -89 -79 -8 -22 0 -33 89 -121 66 -63 121 -130
164 -196 36 -55 78 -113 94 -129 64 -63 145 -84 322 -82 131 1 165 19 210 107
31 61 92 268 92 315 0 25 35 140 91 299 31 90 42 136 43 185 1 63 0 65 -25 68
-42 5 -66 -25 -138 -172 l-68 -140 1 160 c2 241 -18 364 -59 364 -44 0 -88
-92 -100 -208 -3 -31 -8 -70 -10 -87 -2 -16 -7 -56 -10 -87 -4 -31 -13 -65
-20 -74 -13 -19 -19 14 -30 186 -15 230 -19 251 -59 294 -25 28 -35 33 -52 26z"/>
<path d="M7455 9376 c-36 -39 -60 -113 -71 -221 -3 -38 -8 -78 -10 -87 -1 -9
-6 -48 -9 -85 -7 -72 -32 -204 -40 -212 -3 -2 -5 -2 -5 1 0 3 -4 27 -9 54 -5
27 -12 110 -16 184 -3 74 -11 160 -17 190 -26 135 -95 202 -127 122 -20 -53
-30 -101 -47 -237 -3 -16 -7 -100 -10 -185 -3 -85 -6 -159 -8 -164 -1 -4 -32
69 -70 163 -72 179 -100 221 -151 221 -55 0 -50 -102 14 -340 66 -243 68 -249
81 -360 27 -220 83 -412 134 -458 47 -43 111 -57 271 -57 150 0 151 0 217 33
71 35 108 73 188 191 80 120 178 225 269 291 58 42 64 59 40 108 -38 77 -124
105 -203 67 -31 -15 -55 -38 -132 -128 -8 -10 -25 -17 -37 -15 -38 5 -23 61
64 238 132 269 169 395 127 437 -49 49 -160 -64 -268 -272 -34 -66 -64 -122
-67 -125 -6 -5 3 95 17 200 12 96 7 337 -10 388 -14 45 -51 92 -71 92 -6 0
-26 -15 -44 -34z"/>
<path d="M12270 9279 c-30 -4 -68 -10 -85 -13 -16 -3 -43 -8 -60 -11 -63 -12
-243 -78 -320 -117 -127 -64 -287 -172 -364 -245 -22 -21 -22 -23 -5 -30 11
-3 21 -10 24 -14 13 -18 218 -112 312 -143 265 -87 569 -105 836 -50 165 34
404 131 507 207 106 78 145 109 145 116 0 11 -34 41 -47 41 -6 0 -13 3 -15 8
-5 12 -70 57 -129 89 -117 64 -311 129 -439 147 -129 18 -280 25 -360 15z"/>
<path d="M2967 9034 c-1 -1 -40 -5 -87 -8 -47 -3 -97 -8 -112 -11 -16 -3 -38
-7 -50 -9 -23 -4 -73 -17 -138 -34 -61 -17 -133 -46 -218 -88 l-83 -42 28 -33
c167 -204 462 -368 780 -435 84 -18 266 -23 373 -11 195 21 404 90 589 194
l65 36 -55 49 c-80 72 -217 163 -327 218 -89 44 -302 125 -302 115 0 -3 -11 0
-24 5 -42 16 -168 39 -250 45 -92 8 -185 12 -189 9z"/>
<path d="M10333 8808 c-46 -25 -57 -37 -84 -88 -20 -38 -22 -59 -24 -221 -2
-160 -1 -179 14 -180 23 -1 35 -4 151 -34 124 -32 219 -36 270 -11 152 75 106
290 -64 304 l-54 4 10 30 c45 128 -101 259 -219 196z"/>
<path d="M4674 8751 c-89 -22 -139 -89 -132 -176 l5 -54 -51 4 c-186 13 -240
-231 -68 -307 39 -18 59 -20 132 -15 48 4 93 8 101 11 21 7 98 17 143 19 l40
2 2 45 c2 25 6 70 9 100 27 226 5 308 -97 361 -40 21 -39 20 -84 10z"/>
<path d="M6405 8468 c-33 -22 -67 -47 -77 -56 -9 -10 -39 -39 -67 -66 -58 -54
-127 -152 -147 -208 -7 -21 -11 -38 -8 -38 2 0 1 -8 -5 -17 -9 -18 -15 -55
-29 -163 -3 -30 -6 -176 -6 -323 l0 -269 -60 7 c-114 12 -249 66 -371 148 -65
44 -227 201 -291 282 -21 27 -51 63 -66 80 -16 16 -28 33 -28 36 0 4 -19 19
-42 35 -24 16 -45 32 -48 35 -3 3 -13 8 -22 12 -18 6 -18 -9 -1 -83 3 -14 7
-35 9 -46 8 -63 122 -241 248 -388 97 -113 417 -408 544 -504 21 -15 39 -30
42 -33 3 -3 75 -54 160 -114 322 -225 440 -328 563 -489 64 -85 119 -225 142
-363 3 -18 7 -45 10 -60 2 -16 7 -48 10 -73 17 -151 52 -316 116 -540 22 -80
42 -156 45 -170 3 -14 7 -31 9 -38 17 -49 24 -329 11 -437 -21 -166 -24 -202
-30 -308 -3 -43 -7 -81 -10 -85 -3 -3 -6 2 -6 10 0 9 -6 20 -13 26 -10 9 -13
4 -13 -21 -1 -35 -12 -156 -18 -197 -11 -71 -17 -106 -21 -120 -2 -8 -6 -37
-10 -65 -3 -27 -8 -57 -10 -65 -14 -55 -19 -150 -19 -410 l-1 -295 -37 -50
c-108 -147 -263 -235 -463 -263 -66 -9 -247 -7 -310 4 -61 11 -279 11 -360 0
-53 -7 -80 -11 -185 -32 -13 -3 -29 -9 -35 -13 -5 -5 -22 -11 -37 -15 -60 -14
-299 -138 -363 -188 -63 -49 -136 -112 -160 -138 l-30 -33 30 8 c17 4 37 9 45
10 8 2 15 4 15 5 0 1 7 3 15 5 18 3 154 56 293 114 89 37 182 60 312 77 99 13
468 10 518 -4 55 -15 60 -27 15 -36 -18 -3 -42 -8 -53 -11 -11 -2 -60 -14
-110 -26 -49 -11 -101 -23 -114 -25 -55 -11 -270 -88 -340 -122 -156 -76 -286
-249 -307 -407 -3 -22 -7 -46 -10 -54 -8 -26 103 59 230 174 105 96 266 191
426 252 70 27 71 27 290 96 80 25 159 51 175 58 35 14 38 15 85 24 19 3 51 10
70 15 58 16 203 48 242 54 21 3 41 6 45 7 22 4 21 -5 -3 -53 -46 -93 -95 -149
-190 -219 -75 -56 -217 -139 -237 -139 -2 0 -22 -8 -43 -17 -22 -9 -43 -18
-49 -19 -5 -1 -44 -15 -85 -31 -41 -16 -136 -46 -210 -67 -318 -90 -370 -114
-472 -218 -83 -86 -102 -131 -106 -258 l-3 -105 27 30 c121 137 156 173 204
209 57 44 90 64 150 89 19 8 56 24 82 36 26 12 49 21 53 21 3 0 90 41 193 91
229 111 284 126 492 132 151 5 211 16 271 52 66 39 176 159 274 300 22 31 54
75 71 98 43 60 137 213 168 273 103 207 134 420 92 634 -1 8 -6 38 -11 65 -4
28 -23 120 -42 205 -42 190 -35 158 -78 325 -19 77 -38 156 -41 175 -2 19 -11
60 -19 90 -8 31 -17 73 -20 95 -3 22 -7 49 -10 60 -15 72 -18 146 -16 345 5
404 5 514 -2 579 -8 71 -8 74 -36 191 -37 157 -40 187 -46 439 -4 173 -6 194
-31 301 -37 161 -75 253 -145 355 -38 55 -79 112 -91 127 -13 14 -32 39 -43
54 -18 25 -80 100 -175 214 -21 25 -61 74 -90 110 -28 36 -62 79 -76 95 -52
63 -162 234 -174 271 -7 22 -17 45 -23 52 -5 6 -7 12 -4 12 3 0 -1 21 -9 48
-18 57 -26 264 -13 342 5 30 11 71 14 91 9 61 20 89 105 262 45 92 80 172 78
177 -2 5 -30 -9 -63 -32z m240 -5787 c-16 -15 -220 -70 -282 -75 -46 -5 -31 1
72 28 147 37 208 53 215 55 2 0 0 -3 -5 -8z"/>
<path d="M8425 8418 c-25 -28 -69 -90 -96 -137 -27 -47 -54 -93 -59 -101 -6
-8 -16 -26 -22 -40 -7 -14 -33 -61 -58 -105 -151 -266 -216 -451 -276 -780 -3
-16 -11 -59 -19 -95 -17 -76 -24 -112 -30 -160 -3 -19 -10 -61 -16 -92 -5 -32
-12 -70 -15 -85 -15 -84 -70 -269 -88 -296 -12 -18 -37 -40 -55 -49 -30 -15
-37 -15 -61 -3 -44 23 -88 99 -159 277 -60 152 -125 277 -183 353 -46 61 -69
87 -112 125 -27 25 -79 73 -115 107 -76 72 -141 110 -203 120 -38 6 -137 8
-237 4 l-35 -1 30 -24 c379 -308 409 -336 476 -451 104 -177 178 -376 223
-600 33 -163 34 -169 49 -295 31 -249 37 -548 21 -1005 -11 -310 -12 -591 -3
-635 24 -119 56 -228 128 -435 103 -298 119 -362 126 -480 12 -207 6 -351 -21
-492 -31 -161 -92 -276 -293 -558 -181 -252 -266 -437 -256 -556 8 -96 39
-235 81 -359 8 -25 17 -55 19 -68 10 -51 40 -117 54 -117 12 0 15 20 13 115
-3 248 -3 436 0 455 17 100 105 264 222 410 62 79 233 255 246 255 5 0 11 -12
15 -27 8 -38 60 -210 90 -303 14 -41 44 -113 67 -160 37 -77 58 -102 214 -260
195 -198 244 -262 260 -339 9 -39 5 -233 -4 -242 -4 -4 -64 -28 -133 -53 -125
-46 -126 -46 -236 -37 -7 1 -22 20 -34 44 -12 23 -36 67 -53 97 -80 143 -116
230 -123 295 -2 22 -6 121 -9 220 -3 98 -7 195 -9 215 -3 19 -8 62 -11 95 -6
62 -15 129 -20 155 -2 8 -4 20 -5 25 -2 20 -63 -111 -81 -175 -26 -89 -33
-166 -33 -372 l0 -177 37 -73 c19 -40 73 -118 119 -172 180 -215 182 -218 167
-227 -8 -5 -21 -9 -29 -9 -9 0 -21 -5 -28 -12 -7 -7 -12 -9 -12 -6 0 4 -48 -7
-107 -23 -60 -17 -117 -32 -128 -34 -11 -3 -69 -19 -130 -35 -60 -17 -179 -49
-263 -71 -84 -22 -163 -44 -177 -49 -14 -5 -25 -8 -25 -5 0 2 -18 -2 -40 -10
-22 -8 -40 -13 -40 -11 0 2 -51 -9 -112 -25 -62 -16 -124 -31 -138 -34 -14 -2
-55 -10 -92 -19 -36 -8 -77 -17 -89 -20 -13 -2 -105 -20 -204 -40 -99 -19
-194 -38 -212 -41 -18 -3 -63 -12 -100 -20 -37 -9 -77 -17 -88 -19 -11 -2 -38
-7 -60 -11 -22 -4 -47 -9 -55 -10 -8 -2 -49 -10 -90 -19 -79 -16 -96 -19 -200
-35 -36 -6 -76 -13 -90 -16 -13 -2 -42 -7 -65 -10 -22 -4 -51 -8 -65 -10 -14
-2 -45 -6 -70 -10 -25 -3 -56 -8 -70 -10 -14 -3 -38 -7 -55 -9 -40 -6 -116
-18 -135 -21 -8 -1 -35 -6 -60 -9 -25 -4 -81 -14 -125 -23 -44 -9 -86 -16 -92
-16 -21 0 -16 -10 39 -73 142 -162 349 -350 412 -374 25 -9 228 -7 326 4 25 3
68 8 95 11 46 5 164 21 225 30 14 2 45 7 70 10 25 3 56 8 70 10 14 2 68 11
120 20 52 8 106 17 120 20 14 2 66 11 115 20 99 18 107 19 180 30 28 4 66 11
85 15 19 5 57 12 84 15 66 7 198 31 272 49 34 8 72 17 85 20 26 5 251 54 284
62 11 3 32 7 46 10 15 3 96 21 180 40 85 19 163 36 174 38 11 2 61 13 110 25
50 13 97 24 105 26 8 2 69 17 135 35 66 17 125 32 130 33 6 2 16 6 23 10 6 5
12 6 12 3 0 -2 15 0 33 5 17 5 136 38 262 74 127 35 284 79 350 99 66 20 129
39 140 41 11 3 31 9 45 14 14 5 72 24 130 41 58 17 134 41 170 53 36 11 70 22
75 23 16 4 249 75 265 81 8 3 20 7 26 8 6 2 56 16 110 33 449 138 803 227
1179 298 22 4 42 8 45 9 3 0 30 5 60 9 30 4 62 9 70 11 8 1 42 6 75 10 33 5
67 9 75 10 69 10 240 25 340 30 41 2 92 10 112 19 58 25 265 224 369 356 24
30 77 87 117 127 l73 72 -33 5 c-163 28 -630 40 -873 23 -151 -11 -308 -24
-375 -32 -71 -8 -145 -17 -160 -20 -21 -3 -131 -18 -155 -20 -68 -7 -294 -44
-305 -50 -3 -2 -21 -6 -40 -9 -19 -3 -57 -10 -85 -15 -55 -10 -218 -12 -232
-2 -5 3 -26 36 -46 73 -73 131 -180 244 -289 306 -45 25 -179 76 -228 87 -8 1
-40 10 -71 19 -31 9 -65 18 -75 20 -11 3 -41 10 -69 16 -27 6 -57 13 -65 15
-8 2 -45 10 -81 19 -87 20 -118 27 -151 33 -75 14 2 18 340 17 403 0 439 -4
604 -65 97 -36 366 -145 390 -159 39 -22 40 -8 3 28 -226 214 -465 342 -728
388 -74 13 -122 14 -247 8 -85 -4 -234 -8 -330 -8 -153 -1 -185 2 -255 22
-151 44 -262 125 -352 258 l-34 52 -3 308 c-2 170 -6 320 -9 334 -5 25 -16 95
-23 160 -10 82 -39 221 -79 380 -44 173 -48 212 -46 400 2 221 7 311 21 345
10 25 115 450 126 510 11 63 34 206 38 240 39 338 103 458 396 740 128 124
202 186 444 369 137 104 296 232 411 329 111 94 364 353 446 457 84 106 186
259 203 302 6 15 14 28 18 28 4 0 8 10 8 23 0 12 9 47 19 77 22 62 18 79 -12
53 -12 -10 -37 -31 -56 -48 -55 -48 -169 -163 -265 -271 -213 -236 -358 -365
-481 -427 -117 -59 -167 -75 -265 -83 l-65 -6 0 244 c0 133 -4 277 -8 318 -19
170 -66 355 -121 475 -33 72 -148 180 -211 199 -17 5 -8 -20 53 -142 46 -93
76 -167 82 -202 10 -62 6 -519 -5 -565 -4 -16 -8 -34 -9 -40 -14 -64 -53 -141
-134 -265 -62 -96 -176 -251 -217 -296 -33 -37 -233 -293 -281 -360 -69 -97
-141 -219 -163 -278 -31 -83 -51 -196 -56 -318 -13 -283 -15 -335 -20 -363 -3
-16 -7 -43 -9 -60 -5 -42 -15 -81 -39 -150 -30 -85 -31 -320 -1 -470 2 -11 6
-31 9 -45 2 -14 18 -79 35 -145 31 -120 35 -135 45 -177 31 -125 26 -490 -9
-720 -3 -21 -8 -55 -11 -75 -8 -56 -47 -264 -91 -483 -9 -41 -18 -86 -20 -100
-3 -14 -16 -79 -29 -145 -13 -66 -26 -136 -30 -155 -14 -77 -14 -217 1 -280
41 -176 179 -381 385 -571 246 -228 271 -257 326 -376 26 -57 36 -92 37 -133
1 -55 -11 -150 -20 -159 -5 -6 -20 -8 -96 -16 -32 -4 -71 -10 -88 -15 -27 -8
-30 -6 -31 13 0 12 -2 81 -3 152 -5 236 -18 266 -174 427 -150 154 -173 180
-251 283 -77 101 -133 202 -162 290 -57 172 -66 444 -24 725 2 14 7 49 10 79
4 30 9 63 11 75 2 11 6 38 9 61 3 22 11 69 16 105 6 36 12 81 14 100 11 111
18 153 44 260 24 101 27 118 50 280 26 179 32 375 18 550 -11 134 -18 171 -67
383 -11 48 -22 102 -25 120 -3 18 -8 50 -11 72 -12 79 -11 451 2 551 6 54 15
126 19 159 3 33 8 67 10 75 2 8 6 37 10 64 3 27 8 53 10 56 3 4 7 49 10 101 7
131 15 246 20 302 14 138 16 157 30 254 2 15 7 48 10 73 9 66 62 301 75 335 6
17 11 32 11 35 -1 3 9 34 21 70 12 36 23 67 23 70 2 6 25 59 66 149 16 35 29
68 29 73 0 5 9 27 19 48 11 22 16 42 11 45 -15 9 35 200 122 465 69 211 78
240 73 240 -2 0 -24 -23 -50 -52z m150 -5999 c601 -140 891 -239 1095 -374 59
-40 200 -173 249 -236 l20 -25 -70 -23 c-120 -39 -122 -38 -499 81 -36 11 -69
21 -75 23 -5 1 -17 5 -25 8 -8 3 -44 15 -80 27 -73 25 -69 23 -200 79 -181 78
-381 206 -448 287 -33 40 -71 107 -82 147 -11 34 -5 34 115 6z m75 -383 c19
-11 58 -39 85 -62 63 -52 121 -88 160 -99 36 -10 36 -10 55 -18 13 -5 180 -50
233 -63 9 -2 25 -6 35 -8 112 -28 299 -110 272 -120 -30 -11 -376 -124 -415
-135 -64 -19 -189 -53 -206 -56 -9 -2 -33 -8 -53 -13 -33 -10 -36 -9 -37 11
-1 12 -3 31 -4 42 -1 11 -5 48 -9 81 -7 74 -22 152 -38 208 -13 43 -27 65
-120 184 -32 40 -58 77 -58 82 0 11 53 -7 100 -34z"/>
<path d="M5588 8273 c-16 -2 -28 -9 -28 -14 0 -5 -6 -9 -14 -9 -23 0 -74 -67
-82 -105 -11 -62 4 -228 28 -301 28 -89 108 -172 189 -199 123 -41 247 15 285
128 28 84 14 188 -39 300 -54 113 -87 153 -152 183 -49 23 -110 29 -187 17z"/>
<path d="M9610 8260 c-116 -34 -227 -167 -259 -310 -6 -25 -9 -82 -7 -127 3
-96 23 -134 95 -179 95 -58 224 -29 324 73 87 89 128 138 134 161 3 13 3 78 1
145 -4 98 -10 134 -29 182 l-24 60 -105 1 c-58 1 -116 -2 -130 -6z"/>
<path d="M11445 8193 c-11 -2 -56 -11 -100 -19 -139 -26 -385 -116 -385 -141
0 -18 198 -200 265 -244 207 -137 518 -240 805 -267 155 -14 376 -5 525 23 98
19 245 63 245 74 0 7 -21 39 -50 75 -33 43 -167 175 -205 202 -22 16 -42 32
-45 35 -3 3 -35 25 -71 47 -147 93 -367 177 -514 198 -16 2 -41 7 -55 10 -28
7 -384 13 -415 7z"/>
<path d="M8437 7875 c-57 -20 -86 -68 -81 -133 3 -44 24 -74 126 -180 l86 -91
24 18 c12 10 59 40 103 66 123 72 161 127 144 205 -8 37 -56 85 -87 88 -64 7
-96 -3 -136 -43 -15 -15 -17 -15 -25 8 -11 28 -54 61 -91 70 -14 3 -42 0 -63
-8z"/>
<path d="M3748 7755 c-1 -1 -46 -5 -98 -8 -102 -6 -250 -30 -297 -48 -15 -6
-29 -10 -31 -9 -11 4 -134 -40 -210 -76 -83 -38 -209 -109 -222 -123 -3 -4
-23 -19 -45 -35 -68 -50 -113 -93 -106 -103 10 -15 121 -88 179 -117 121 -61
297 -117 412 -131 25 -3 63 -8 85 -11 59 -8 221 -8 297 0 131 14 311 72 453
144 68 35 205 118 215 131 3 3 30 25 60 48 30 23 72 59 93 81 l38 39 -103 50
c-126 62 -271 113 -368 129 -14 3 -50 9 -80 15 -30 5 -98 12 -150 15 -52 3
-100 7 -107 9 -6 2 -13 2 -15 0z"/>
<path d="M7483 7652 c-30 -4 -92 -98 -119 -180 -19 -56 -23 -84 -20 -167 2
-55 6 -113 10 -128 9 -37 44 -112 73 -157 l23 -36 110 -2 110 -2 46 62 c75
101 95 155 97 251 2 109 -10 212 -29 254 -24 50 -84 87 -158 98 -49 8 -119 11
-143 7z"/>
<path d="M10549 7096 c-2 -2 -37 -7 -78 -10 -41 -4 -77 -9 -80 -11 -3 -1 -22
-6 -41 -9 -64 -10 -84 -16 -167 -42 -46 -15 -83 -31 -83 -36 0 -15 72 -101
159 -191 79 -82 183 -166 286 -232 74 -47 274 -145 297 -145 9 0 19 -4 22 -9
3 -4 20 -12 38 -16 18 -4 38 -9 43 -11 34 -13 225 -54 277 -60 68 -7 313 -8
325 -1 5 3 33 8 63 12 30 4 58 9 61 11 3 2 21 6 40 9 19 3 55 13 82 21 l47 16
-32 59 c-18 33 -43 72 -55 86 -13 14 -23 30 -23 35 0 23 -215 220 -305 280
-138 91 -305 175 -385 194 -19 4 -39 9 -45 10 -30 8 -64 15 -95 20 -19 3 -42
7 -50 10 -17 6 -296 15 -301 10z"/>
<path d="M4988 6775 c-2 -1 -37 -5 -78 -8 -41 -4 -85 -9 -96 -11 -12 -2 -37
-7 -55 -10 -56 -9 -232 -56 -244 -66 -5 -4 -13 -9 -17 -9 -47 -5 -223 -91
-325 -157 -158 -103 -306 -249 -404 -398 l-59 -90 27 -11 c178 -74 477 -91
708 -39 39 8 79 17 91 19 122 26 294 107 424 200 71 52 187 159 255 236 84 95
213 293 197 303 -4 2 -27 7 -52 11 -25 4 -54 9 -65 11 -59 12 -298 26 -307 19z"/>
<path d="M6845 2011 c-71 -37 -141 -73 -155 -81 -14 -8 -27 -15 -30 -15 -3 0
-65 -32 -139 -70 -101 -52 -147 -83 -190 -126 -100 -99 -162 -258 -186 -469
-3 -30 -8 -73 -11 -94 -5 -34 -4 -37 9 -24 20 19 83 124 127 211 49 94 50 96
95 161 40 59 119 124 254 211 41 26 81 53 89 61 7 8 16 14 20 14 14 0 132 118
181 180 28 36 57 72 66 81 16 17 20 29 8 28 -5 0 -66 -31 -138 -68z"/>
</g>
</svg>
